<?xml version="1.0" encoding="UTF-8"?>
<svg width="7px" height="9px" viewBox="0 0 7 9" version="1.1" xmlns="http://www.w3.org/2000/svg" xmlns:xlink="http://www.w3.org/1999/xlink">
    <g id="Page-1" stroke="none" stroke-width="1" fill="none" fill-rule="evenodd">
        <g id="figma" transform="translate(0.000000, -1.000000)" fill-rule="nonzero">
            <g id="Group" transform="translate(0.000000, 0.998603)">
                <path d="M3.5,7.57139679 L3.5,6.00139679 L2,6.00139679 C1.14948149,6.00139679 0.46,6.69087828 0.46,7.54139679 C0.46,8.39191531 1.14948149,9.00139679 2,9.00139679 C2.85051851,9.00139679 3.5,8.42191531 3.5,7.57139679 Z" id="path0_fill" fill="#0ACF83"></path>
                <path d="M0.42,4.50139679 C0.430471967,4.0929176 0.602853489,3.70534563 0.899191618,3.42401196 C1.19552975,3.1426783 1.59152796,2.99064925 2,3.00139679 L3.5,3.00139679 L3.5,6.00139679 L2,6.00139679 C1.59152796,6.01214434 1.19552975,5.86011529 0.899191618,5.57878162 C0.602853489,5.29744796 0.430471967,4.90987599 0.42,4.50139679 Z" id="path1_fill" fill="#A259FF"></path>
                <path d="M0.42,1.42139679 C0.422546769,1.00767481 0.591455816,0.612378425 0.888671969,0.324567847 C1.18588812,0.0367572694 1.58640996,-0.00935727332 2,0.00139679452 L3.5,0.00139679452 L3.5,3.00139679 L2,3.00139679 C1.57764698,3.01251718 1.16927422,2.84962695 0.870522034,2.55087476 C0.571769849,2.25212258 0.408879618,1.84374981 0.42,1.42139679 Z" id="path1_fill-2" fill="#F24E1E"></path>
                <path d="M3.5,0 L5,0 C5.85880279,-8.74707705e-16 6.555,0.587594009 6.555,1.44639679 C6.555,2.30519958 5.85880279,3.00139679 5,3.00139679 L3.5,3.00139679 L3.5,0 Z" id="path2_fill" fill="#FF7262"></path>
                <path d="M6.58,4.50139679 C6.60179367,5.35150076 5.93041827,6.05836443 5.08031923,6.08034927 C4.23022019,6.10233411 3.52320556,5.43111769 3.50102954,4.58102362 C3.47885352,3.73092954 4.14991094,3.02376398 5,3.00139679 C5.40847204,2.99064925 5.80447025,3.1426783 6.10080838,3.42401196 C6.39714651,3.70534563 6.56952803,4.0929176 6.58,4.50139679 Z" id="path3_fill" fill="#1ABCFE"></path>
            </g>
        </g>
    </g>
</svg>
