<?xml version="1.0" encoding="UTF-8"?>
<svg width="563px" height="167px" viewBox="0 0 563 167" version="1.1" xmlns="http://www.w3.org/2000/svg" xmlns:xlink="http://www.w3.org/1999/xlink">
    <g id="Page-1" stroke="none" stroke-width="1" fill="none" fill-rule="evenodd">
        <g id="Group">
            <rect id="Rectangle" fill="#000000" x="0" y="0" width="167" height="167" rx="8"></rect>
            <polygon id="M" fill="#FFFFFF" fill-rule="nonzero" points="124.74 68.984 142.464 113 127.932 113 111.804 72.932 93.24 113 28.056 113 28.056 54.2 66.78 54.2 80.22 84.104 94.164 54.2 120.456 54.2 113.652 68.984"></polygon>
            <path d="M266.302,113.96 L259.162,113.96 L253.45,72.128 L232.786,113.96 L230.602,113.96 L209.686,71.792 L203.974,113.96 L197.002,113.96 L205.738,52.472 L207.502,52.472 L231.694,101.276 L255.718,52.472 L257.482,52.472 L266.302,113.96 Z M321.658,113.96 L314.854,113.96 L314.854,107.24 C309.869975,112.728027 304.130032,115.472 297.634,115.472 C291.137968,115.472 285.580023,113.078024 280.96,108.29 C276.339977,103.501976 274.03,97.7900332 274.03,91.154 C274.03,84.5179668 276.353977,78.8340237 281.002,74.102 C285.650023,69.3699763 291.319967,67.004 298.012,67.004 C304.704033,67.004 310.317977,69.7199728 314.854,75.152 L314.854,68.18 L321.658,68.18 L321.658,113.96 Z M298.138,109.004 C302.786023,109.004 306.789983,107.324017 310.15,103.964 C313.510017,100.603983 315.19,96.4180251 315.19,91.406 C315.19,86.3939749 313.538017,82.1940169 310.234,78.806 C306.929983,75.4179831 302.884024,73.724 298.096,73.724 C293.307976,73.724 289.262017,75.4739825 285.958,78.974 C282.653983,82.4740175 281.002,86.6039762 281.002,91.364 C281.002,96.1240238 282.681983,100.253983 286.042,103.754 C289.402017,107.254018 293.433976,109.004 298.138,109.004 Z M339.466,113.96 L332.578,113.96 L332.578,50.96 L339.466,50.96 L339.466,113.96 Z M395.326,92.288 L355.174,92.288 C355.454001,97.3280252 357.147984,101.373985 360.256,104.426 C363.364016,107.478015 367.073978,109.004 371.386,109.004 C378.722037,109.004 384.321981,105.392036 388.186,98.168 L394.066,101.192 C391.433987,106.064024 388.326018,109.661988 384.742,111.986 C381.157982,114.310012 376.874025,115.472 371.89,115.472 C365.001966,115.472 359.318022,113.106024 354.838,108.374 C350.357978,103.641976 348.118,97.9440333 348.118,91.28 C348.118,84.6159667 350.371977,78.9040238 354.88,74.144 C359.388023,69.3839762 364.973967,67.004 371.638,67.004 C378.302033,67.004 383.873978,69.2579775 388.354,73.766 C392.834022,78.2740225 395.157999,84.4479608 395.326,92.288 Z M387.598,86.156 C386.757996,82.2359804 384.854015,79.1840109 381.886,77 C378.917985,74.8159891 375.502019,73.724 371.638,73.724 C363.797961,73.724 358.590013,77.8679586 356.014,86.156 L387.598,86.156 Z M444.046,68.18 L423.13,115.472 L421.45,115.472 L400.366,68.18 L407.674,68.18 L422.206,101.276 L436.738,68.18 L444.046,68.18 Z M453.958,50.96 C455.470008,50.96 456.743995,51.4779948 457.78,52.514 C458.816005,53.5500052 459.334,54.8099926 459.334,56.294 C459.334,57.7780074 458.816005,59.0379948 457.78,60.074 C456.743995,61.1100052 455.484007,61.628 454,61.628 C452.515993,61.628 451.256005,61.0960053 450.22,60.032 C449.183995,58.9679947 448.666,57.7220071 448.666,56.294 C448.666,54.8659929 449.183995,53.6200053 450.22,52.556 C451.256005,51.4919947 452.501993,50.96 453.958,50.96 Z M457.486,113.96 L450.514,113.96 L450.514,68.18 L457.486,68.18 L457.486,113.96 Z M512.926,104.636 C510.517988,108.164018 507.368019,110.851991 503.476,112.7 C499.583981,114.548009 495.370023,115.472 490.834,115.472 C483.777965,115.472 477.884024,113.148023 473.152,108.5 C468.419976,103.851977 466.054,98.1680336 466.054,91.448 C466.054,84.7279664 468.433976,78.9740239 473.194,74.186 C477.954024,69.3979761 484.113962,67.004 491.674,67.004 C496.154022,67.004 500.283981,67.9839902 504.064,69.944 C507.844019,71.9040098 510.797989,74.6479824 512.926,78.176 L507.466,81.62 C503.37798,76.2999734 498.030033,73.64 491.422,73.64 C486.213974,73.64 481.846018,75.3059833 478.318,78.638 C474.789982,81.9700167 473.026,86.0999754 473.026,91.028 C473.026,95.9560246 474.761983,100.183982 478.234,103.712 C481.706017,107.240018 486.101973,109.004 491.422,109.004 C497.806032,109.004 503.181978,106.316027 507.55,100.94 L512.926,104.636 Z M562.654,113.96 L555.682,113.96 L555.682,92.12 C555.682,87.8639787 555.556001,84.8680087 555.304,83.132 C555.051999,81.3959913 554.478004,79.7580077 553.582,78.218 C552.685996,76.6779923 551.468008,75.5020041 549.928,74.69 C548.387992,73.8779959 546.540011,73.472 544.384,73.472 C542.227989,73.472 540.17001,73.975995 538.21,74.984 C536.24999,75.992005 534.570007,77.391991 533.17,79.184 C531.769993,80.976009 530.804003,82.8799899 530.272,84.896 C529.739997,86.9120101 529.474,90.9439698 529.474,96.992 L529.474,113.96 L522.502,113.96 L522.502,50.96 L529.474,50.96 L529.474,75.068 C534.010023,69.6919731 539.385969,67.004 545.602,67.004 C548.906017,67.004 551.901987,67.8579915 554.59,69.566 C557.278013,71.2740085 559.293993,73.625985 560.638,76.622 C561.982007,79.618015 562.654,84.2239689 562.654,90.44 L562.654,113.96 Z" id="Malevich" fill="#000000" fill-rule="nonzero"></path>
        </g>
    </g>
</svg>
